<svg id="Layer_1" height="512" viewBox="0 0 128 128" width="512" xmlns="http://www.w3.org/2000/svg" data-name="Layer 1"><path d="m24.184 46.363a15.612 15.612 0 0 0 -3.338 3.567c-1.966 2.866-2.829 6.925-2.5 11.737a1.751 1.751 0 0 0 1.747 1.633h.123a1.75 1.75 0 0 0 1.625-1.867c-.277-4.016.376-7.307 1.892-9.516a12.123 12.123 0 0 1 2.584-2.771 1.75 1.75 0 0 0 -2.133-2.775z"/><path d="m108.934 63.464c2.714-5.513 3.842-16.407 3.978-17.8a1.75 1.75 0 0 0 -2.062-1.89c-1.592.295-15.666 3-19.376 7.048a10.862 10.862 0 0 0 -1.62 2.33 30.639 30.639 0 0 0 -3.5-.241 18.093 18.093 0 0 0 -2.715-7.033c-8.324-12.141-23.8-8.314-32.719-3.715 0-5.4 1.193-17.326 11.2-21.841a1.751 1.751 0 1 0 -1.439-3.191 20.07 20.07 0 0 0 -8.1 6.645 9.93 9.93 0 0 0 -2.281-3.568c-3.521-3.525-16.3-5.408-17.743-5.615a1.729 1.729 0 0 0 -1.481.5 1.752 1.752 0 0 0 -.5 1.481c.2 1.445 2.09 14.224 5.615 17.748a10 10 0 0 0 11.673 1.788 40.52 40.52 0 0 0 -.448 5.928c-8.955-4.541-24.22-8.187-32.469 3.842-5.887 8.584-3.7 28.786 8.862 44.049 7.718 9.371 16.965 12.806 25.491 9.516a17.849 17.849 0 0 0 6.493 1.244 18.142 18.142 0 0 0 5.014-.733 30.255 30.255 0 1 0 48.13-36.493zm.228-15.782c-.672 5.283-2.038 12.329-3.767 14.986-.025.034-.045.07-.067.106a3.918 3.918 0 0 1 -.338.434 7.412 7.412 0 0 1 -10.424.5 12.974 12.974 0 0 1 7.673-6.947 1.75 1.75 0 1 0 -1.059-3.336 15.859 15.859 0 0 0 -8.758 6.877 7.413 7.413 0 0 1 1.632-7.122c1.92-2.09 9.503-4.28 15.108-5.498zm-70.493-15.839c-1.745-1.745-3.375-8.392-4.251-13.412 5.02.875 11.664 2.5 13.411 4.252a6.477 6.477 0 0 1 -9.16 9.16zm11.322 64.105a1.746 1.746 0 0 0 -1.387 0c-9.825 4.237-18.058-3.35-22.089-8.248-10.093-12.267-14.315-31.633-8.678-39.846 3.972-5.79 10.217-7.818 18.559-6.021a43 43 0 0 1 11.981 4.742 1.757 1.757 0 0 0 1.842 0 43 43 0 0 1 11.981-4.743c8.341-1.8 14.587.23 18.558 6.022a14.235 14.235 0 0 1 2.086 5.205 30.24 30.24 0 0 0 -23.877 43.751 14.3 14.3 0 0 1 -8.976-.862zm35.973 13.977a26.763 26.763 0 0 1 0-53.525 27.105 27.105 0 0 1 2.77.157 10.946 10.946 0 0 0 1.73 7.712 29.559 29.559 0 0 0 -1.837 9.418 1.749 1.749 0 0 0 1.741 1.756h.009a1.751 1.751 0 0 0 1.75-1.74 26.545 26.545 0 0 1 1.1-6.6 10.814 10.814 0 0 0 6.281 2.008c.161 0 .324 0 .486-.011a10.837 10.837 0 0 0 6.784-2.752 26.756 26.756 0 0 1 -20.817 43.573z"/><path d="m75.421 62.735a23.013 23.013 0 0 0 -9.395 8.989 1.749 1.749 0 1 0 3.033 1.744 19.529 19.529 0 0 1 7.969-7.624 1.75 1.75 0 1 0 -1.607-3.109z"/></svg>