<?xml version="1.0" encoding="utf-8"?>
<!-- Generator: Adobe Illustrator 23.0.6, SVG Export Plug-In . SVG Version: 6.00 Build 0)  -->
<svg version="1.1" id="Capa_1" xmlns="http://www.w3.org/2000/svg" xmlns:xlink="http://www.w3.org/1999/xlink" x="0px" y="0px"
	 viewBox="0 0 31.4 31.4" style="enable-background:new 0 0 31.4 31.4;" xml:space="preserve">
<g>
	<g>
		<path d="M673.8-25.6l-3.7,1.2l-19.9,1.8l-5.6,9l-4.1-1.3l-15.9-14.3l-2.3-7.4l-3.1-7.9l-10-8.9l-11.8-2.3l-0.3,5.4l11.5,11.2
			l5.6,6.6l-6.3,3.3l-5.2-1.5l-7.7-3.2l0.3-6.2l-10.1-4.2l-3.4,14.7l-10.2,2.3l1,8.2l13.3,2.6l2.3-13.1l11,1.6l5.1,3h8.2l5.6,11.2
			l14.9,15.1L632,7.1l-12-1.5L599.3,16l-14.9,17.9l-1.9,7.9h-5.4l-10-4.6l-9.7,4.6l2.4,10.2l4.2-4.9l7.4-0.2l-0.5,9.2l6.1,1.8
			l6.1,6.9l10-2.8l11.4,1.8l13.3,3.6l6.6,0.8L635.8,81l21.7,12.8l-14,26.8l-14.8,6.9l-5.6,15.3l-21.5,14.3l-2.3,8.3
			C654.2,152.2,695,102.9,695,44C694.9,18.3,687.1-5.7,673.8-25.6z"/>
		<path d="M584.3,109.3l-9.1-16.9l8.4-17.4l-8.4-2.5l-9.4-9.4l-20.8-4.7L538.2,44v8.6h-3l-17.9-24.3v-20L504.1-13l-20.8,3.7h-14
			l-7.1-4.6l9-7.1l-9,2.1C451.3-0.5,445,21,445,44c0,69,56,125,125,125c5.3,0,10.5-0.5,15.7-1.1l-1.3-15.1c0,0,5.7-22.5,5.7-23.3
			C590.1,128.7,584.3,109.3,584.3,109.3z"/>
		<path d="M491.4-40.7l22.2-3.1l10.2-5.6l11.5,3.3l18.4-1l6.3-9.9l9.2,1.5l22.3-2.1l6.2-6.8l8.7-5.8l12.3,1.8l4.5-0.7
			C607-76.6,589-81,570-81c-38.8,0-73.5,17.7-96.4,45.4h0.1L491.4-40.7z M575.3-68.6l12.8-7l8.2,4.7l-11.9,9L573-60.7l-5.1-3.3
			L575.3-68.6z M537.4-67.5l5.6,2.3l7.4-2.3l4,7l-17,4.5l-8.2-4.8C529.2-60.9,537.3-66.1,537.4-67.5z"/>
	</g>
</g>
<rect x="-556" y="-257" width="250" height="250"/>
<g>
	<g>
		<path d="M368.6,158.4h-91.7c-42.2,0-76.4,34.2-76.4,76.4v91.7c0,42.2,34.2,76.4,76.4,76.4h91.7c42.2,0,76.4-34.2,76.4-76.4v-91.7
			C445,192.6,410.8,158.4,368.6,158.4z M422.1,326.6c0,29.5-24,53.5-53.5,53.5h-91.7c-29.5,0-53.5-24-53.5-53.5v-91.7
			c0-29.5,24-53.5,53.5-53.5h91.7c29.5,0,53.5,24,53.5,53.5V326.6z"/>
	</g>
</g>
<g>
	<g>
		<path d="M-832.2-190.4c-33.8,0-61.1,27.4-61.1,61.1s27.4,61.1,61.1,61.1c33.8,0,61.1-27.4,61.1-61.1S-798.4-190.4-832.2-190.4z
			 M-832.2-91.1c-21.1,0-38.2-17.2-38.2-38.2c0-21.1,17.2-38.2,38.2-38.2c21.1,0,38.2,17.1,38.2,38.2
			C-794-108.2-811.1-91.1-832.2-91.1z"/>
	</g>
</g>
<g>
	<g>
		<circle cx="-766.5" cy="-195" r="8.1"/>
	</g>
</g>
<g>
	<g>
		<path d="M2.3-226.1c-11.4,5-23.5,8.3-36.1,9.9c13-7.8,22.9-20,27.6-34.7c-12.1,7.2-25.5,12.3-39.8,15.2
			c-11.5-12.3-27.9-19.8-45.8-19.8c-34.7,0-62.7,28.2-62.7,62.7c0,5,0.4,9.7,1.5,14.3c-52.1-2.5-98.3-27.5-129.3-65.6
			c-5.4,9.4-8.6,20.1-8.6,31.7c0,21.7,11.2,41,27.9,52.1c-10.1-0.2-20-3.1-28.3-7.7c0,0.2,0,0.4,0,0.7c0,30.5,21.7,55.8,50.2,61.6
			c-5.1,1.4-10.7,2.1-16.4,2.1c-4,0-8.1-0.2-11.9-1.1c8.1,24.8,31.2,43.1,58.6,43.7c-21.3,16.7-48.4,26.7-77.7,26.7
			c-5.1,0-10.1-0.2-15-0.9C-275.8-17.2-242.9-7-207.4-7C-92-7-28.9-102.6-28.9-185.4c0-2.8-0.1-5.4-0.2-8.1
			C-16.7-202.4-6.2-213.4,2.3-226.1z"/>
	</g>
</g>
</svg>
