<?xml version="1.0" encoding="iso-8859-1"?>
<!-- Generator: Adobe Illustrator 19.0.0, SVG Export Plug-In . SVG Version: 6.00 Build 0)  -->
<svg version="1.1" id="Layer_1" xmlns="http://www.w3.org/2000/svg" xmlns:xlink="http://www.w3.org/1999/xlink" x="0px" y="0px"
	 viewBox="0 0 512.001 512.001" style="enable-background:new 0 0 512.001 512.001;" xml:space="preserve">
<g>
	<g>
		<g>
			<path d="M500.106,286.596l-107.572,46.102V294.44c0-6.126-6.264-10.257-11.895-7.843l-117.857,50.51h-23.848v-65.05
				c0-11.207-9.077-20.284-20.284-20.284h-27.699c-11.207,0-20.284,9.077-20.284,20.284v65.05h-25.6h-9.142l-16.481-222.497
				c-0.33-4.456-4.042-7.903-8.51-7.903h-51.2c-4.468,0-8.18,3.447-8.51,7.903L34.743,337.107h-9.142
				c-4.348,0-8.001,3.269-8.481,7.591l-17.067,153.6c-0.562,5.055,3.395,9.476,8.481,9.476h51.183c0.006,0,0.011,0.001,0.017,0.001
				h51.2c0.006,0,0.011-0.001,0.017-0.001h51.183h102.4h42.65c0.006,0,0.011,0.001,0.017,0.001h34.133
				c0.006,0,0.011-0.001,0.017-0.001h42.65h42.65c0.006,0,0.011,0.001,0.017,0.001h34.133c0.006,0,0.011-0.001,0.017-0.001h42.65
				c4.713,0,8.533-3.821,8.533-8.533v-204.8C512.001,288.314,505.737,284.183,500.106,286.596z M187.734,272.057
				c0-1.781,1.436-3.217,3.217-3.217h27.699c1.781,0,3.217,1.436,3.217,3.217v65.05h-34.133V272.057z M179.201,354.173h51.2h25.6
				v136.533h-86.229l-15.17-136.533H179.201z M67.659,123.773h35.351l15.802,213.333H51.856L67.659,123.773z M33.239,354.173h9.429
				h85.333h9.429l6.748,60.728l8.423,75.805h-33.133v-59.732c0-4.713-3.82-8.533-8.533-8.533h-51.2c-4.713,0-8.533,3.82-8.533,8.533
				v59.732H18.068L33.239,354.173z M68.268,490.706v-51.199h34.133v51.199H68.268z M273.068,351.267l102.4-43.886v38.259v145.067
				h-25.6v-51.199c0-4.713-3.82-8.533-8.533-8.533h-34.133c-4.713,0-8.533,3.821-8.533,8.533v51.199h-25.6V351.267z
				 M315.734,490.706v-42.666h17.067v42.666H315.734z M452.268,490.706h-17.067v-42.666h17.067V490.706z M494.934,490.706h-25.6
				v-51.199c0-4.713-3.82-8.533-8.533-8.533h-34.133c-4.713,0-8.533,3.821-8.533,8.533v51.199h-25.6v-139.44l102.4-43.886V490.706z"
				/>
			<path d="M96.966,89.058c0.579-0.226,1.746-0.654,3.4-1.217c2.799-0.953,5.89-1.909,9.17-2.8
				c6.766-1.839,13.399-3.151,19.494-3.709c15.125-1.385,23.181,1.804,24.722,9.903c0.146,1.54,0.74,5.139,1.815,9.698
				c1.785,7.568,4.325,15.146,7.788,22.294c10.333,21.334,26.748,34.68,49.981,34.68c8.989,0.247,18.044-0.065,26.81-1.32
				c11.716-1.678,21.023-4.711,26.712-9.89c12.75,12.75,25.166,20.782,37.047,25.03c8.247,2.948,15.2,3.756,20.455,3.291
				c17.199-0.204,33.063-7.336,47.688-18.964c4.691-3.729,8.948-7.693,12.73-11.68c14.34,11.226,29.254,14.599,41.605,13.608
				c2.984-0.078,5.106-0.104,7.162-0.153c63.834-1.451,96.518-77.693,52.315-123.488c-1.01-1.047-1.789-1.797-2.279-2.239
				c-5.49-4.948-14.246-1.052-14.246,6.339c0,22.336-5.237,34.57-13.254,39.893c-3.765,2.5-7.732,3.19-10.845,2.897
				c-0.118-0.011-1.502-0.123-1.502-0.123c-15.986,0-32.371-14.647-46.142-36.202c-8.075-12.652-17.761-23.041-29.081-30.609
				c-11.858-7.923-21.175-10.586-27.677-9.988c-20.876,0.113-37.946,7.328-51.255,19.24c-1.83,1.638-3.506,3.279-5.033,4.899
				c-3.968-5.516-9.867-9.568-17.098-12.195c-7.293-2.649-14.485-3.479-20.001-3.413c-19.719,0.001-36.071,3.449-49.202,9.265
				c-6.011,2.662-10.528,5.41-13.644,7.802h-13.933c-29.584,0-51.948,8.824-67.74,23.644c-9.675,9.079-14.98,18.289-17.16,24.873
				C83.497,85.279,90.237,91.679,96.966,89.058z M170.668,46.973h17.067c2.24,0,4.391-0.881,5.987-2.453
				c1.458-1.436,5.187-4.044,11.434-6.811c10.951-4.851,24.949-7.802,42.312-7.802c3.826-0.046,9.149,0.568,14.153,2.386
				c7.579,2.753,11.447,7.15,11.447,14.68c0,9.062,12.261,11.876,16.213,3.721c0.331-0.683,1.184-2.167,2.585-4.182
				c2.419-3.479,5.445-6.98,9.095-10.247c10.419-9.325,23.682-14.892,40.374-14.892l1.557-0.143
				c-0.073,0.034,1.087,0.145,3.036,0.701c3.557,1.015,7.923,3.095,13.101,6.555c9.226,6.168,17.307,14.835,24.18,25.604
				c16.551,25.906,36.444,43.782,59.931,44.08c7.174,0.679,14.927-0.669,22.382-5.619c9.118-6.055,15.539-16.246,18.681-30.932
				c15.85,34.445-8.632,78.182-51.056,79.147c-2.09,0.05-4.249,0.075-6.479,0.075l-1.265,0.094
				c-3.259,0.265-7.128,0.046-11.606-1.005c-6.715-1.576-13.353-4.738-19.632-9.904c-1.404-1.155-2.782-2.405-4.13-3.753
				c-3.648-3.648-9.674-3.25-12.81,0.847c-0.659,0.861-2.046,2.521-4.082,4.71c-3.443,3.703-7.379,7.414-11.718,10.864
				c-12.041,9.574-24.686,15.213-37.158,15.213l-1.438,0.122c-2.84,0.242-7.324-0.279-13.181-2.373
				c-9.447-3.378-19.721-10.024-30.547-20.85l-8.533-8.533l-17.067-17.067c-3.333-3.332-8.735-3.332-12.068,0
				c-3.332,3.333-3.332,8.735,0,12.068l13.152,13.152c-2.458,1.953-8.121,4.014-16.861,5.266
				c-7.654,1.096-15.833,1.378-22.767,1.198c-0.615-0.016-1.057-0.032-1.224-0.04c-16.135-0.009-27.271-9.063-35.02-25.062
				c-2.867-5.919-5.02-12.34-6.536-18.772c-0.906-3.841-1.39-6.776-1.562-8.321c-3.752-19.864-20.371-26.443-43.142-24.358
				c-4.305,0.394-8.745,1.089-13.257,2.029C127.23,54.149,145.416,46.973,170.668,46.973z"/>
			<path d="M187.734,465.107c4.713,0,8.533-3.82,8.533-8.533v-68.267c0-4.713-3.82-8.533-8.533-8.533s-8.533,3.82-8.533,8.533
				v68.267C179.201,461.286,183.022,465.107,187.734,465.107z"/>
			<path d="M230.401,465.107c4.713,0,8.533-3.82,8.533-8.533v-68.267c0-4.713-3.82-8.533-8.533-8.533s-8.533,3.82-8.533,8.533
				v68.267C221.868,461.286,225.688,465.107,230.401,465.107z"/>
			<path d="M307.201,405.374h34.133c4.713,0,8.533-3.82,8.533-8.533v-34.133c0-4.713-3.82-8.533-8.533-8.533h-34.133
				c-4.713,0-8.533,3.82-8.533,8.533v34.133C298.668,401.554,302.488,405.374,307.201,405.374z M315.734,371.241h17.067v17.067
				h-17.067V371.241z"/>
			<path d="M426.668,405.374h34.133c4.713,0,8.533-3.82,8.533-8.533v-34.133c0-4.713-3.82-8.533-8.533-8.533h-34.133
				c-4.713,0-8.533,3.82-8.533,8.533v34.133C418.134,401.554,421.955,405.374,426.668,405.374z M435.201,371.241h17.067v17.067
				h-17.067V371.241z"/>
		</g>
	</g>
</g>
<g>
</g>
<g>
</g>
<g>
</g>
<g>
</g>
<g>
</g>
<g>
</g>
<g>
</g>
<g>
</g>
<g>
</g>
<g>
</g>
<g>
</g>
<g>
</g>
<g>
</g>
<g>
</g>
<g>
</g>
</svg>
